<svg width="106" height="80" viewBox="0 0 106 80" fill="none" xmlns="http://www.w3.org/2000/svg">
<g clip-path="url(#clip0_4011_11613)">
<path d="M25.7852 74.3016V73.9969C26.1619 74.0274 26.5121 74.0423 26.8364 74.0423C27.163 74.0423 27.5484 74.0274 27.991 73.9969C28.3247 74.4473 29.3305 75.6912 31.0068 77.7294L30.9903 75.4907C30.9762 74.9447 30.9551 74.6416 30.9269 74.5797C30.8979 74.5178 30.8501 74.47 30.7843 74.4356C30.7185 74.4011 30.4866 74.3564 30.0895 74.3016V73.9969C30.5305 74.0274 30.9159 74.0423 31.2457 74.0423C31.5637 74.0423 31.9695 74.0274 32.4629 73.9969V74.3016C32.3783 74.3181 32.3149 74.329 32.2742 74.3345C31.9499 74.3839 31.7572 74.4379 31.6937 74.4974C31.6311 74.5562 31.5935 74.6776 31.5825 74.8617C31.5551 75.2455 31.5418 76.0359 31.5418 77.2312C31.5418 77.9989 31.5566 78.877 31.5872 79.8647C31.4579 79.9031 31.3303 79.9485 31.2041 80.0002L29.6446 78.031L27.2664 75.1343L27.2829 77.0918L27.3158 78.996C27.3244 79.1386 27.3377 79.2287 27.3573 79.2655C27.3761 79.3023 27.4035 79.3321 27.4395 79.354C27.4998 79.39 27.6941 79.4378 28.0239 79.4981C28.0623 79.5036 28.1194 79.5146 28.1962 79.531V79.8357C27.7239 79.806 27.3447 79.7903 27.0588 79.7903C26.8144 79.7903 26.3993 79.806 25.8141 79.8357V79.531C25.8987 79.5146 25.9638 79.5028 26.0076 79.4942C26.3225 79.4449 26.5105 79.3971 26.5708 79.3501C26.6092 79.3203 26.6366 79.2772 26.6531 79.2208C26.6695 79.1644 26.6875 78.7563 26.7071 77.9965C26.7369 76.8967 26.7518 75.9528 26.7518 75.1656C26.7518 74.9024 26.7377 74.734 26.7087 74.6596C26.6805 74.586 26.6288 74.528 26.5544 74.4865C26.4807 74.4457 26.2927 74.398 25.9912 74.3431C25.9442 74.3345 25.876 74.3212 25.7852 74.3016Z" fill="white"/>
<path d="M32.582 74.3013V73.9966C33.0787 74.0271 33.5831 74.042 34.0962 74.042C34.6312 74.042 35.1607 74.0271 35.684 73.9966V74.3013C35.2672 74.3726 35.0229 74.4243 34.95 74.4556C34.8772 74.4877 34.8262 74.5363 34.798 74.6021C34.7691 74.6671 34.7542 74.8676 34.7542 75.2029L34.7589 75.4865L34.7542 76.5439C35.1443 76.558 35.561 76.5643 36.0051 76.5643C36.4062 76.5643 36.7555 76.558 37.0548 76.5439L37.0462 75.0831C37.0462 74.8222 37.0313 74.6593 37.0007 74.5935C36.971 74.5277 36.913 74.4783 36.8284 74.4454C36.7626 74.418 36.5276 74.3702 36.1242 74.3013V73.9966C36.6545 74.0271 37.1425 74.042 37.5874 74.042C38.0049 74.042 38.5525 74.0271 39.2308 73.9966V74.3013L38.5713 74.4415C38.4992 74.4603 38.4491 74.4838 38.4201 74.5112C38.3903 74.5387 38.3692 74.5731 38.3551 74.6139C38.3277 74.7047 38.3112 74.9883 38.305 75.4661C38.2995 76.2228 38.2971 76.7163 38.2971 76.9474C38.2971 77.885 38.305 78.5767 38.3222 79.0208C38.3277 79.1688 38.3614 79.273 38.4248 79.331C38.4882 79.3905 38.7037 79.4485 39.0703 79.5065L39.2308 79.5307V79.8354C38.6512 79.8057 38.135 79.79 37.6822 79.79C37.2342 79.79 36.7148 79.8057 36.1242 79.8354V79.5307L36.8159 79.3913C36.8981 79.3639 36.9561 79.3216 36.9905 79.266C37.025 79.2096 37.0422 79.0827 37.0422 78.8853L37.0548 77.0703L35.9229 77.0539C35.8712 77.0539 35.4819 77.0594 34.7542 77.0703C34.7573 78.1928 34.7651 78.8634 34.7792 79.0827C34.7871 79.2002 34.8223 79.2871 34.8842 79.342C34.9469 79.3968 35.1552 79.4501 35.5109 79.5025C35.5492 79.508 35.6088 79.5174 35.6887 79.5307V79.8354C35.0785 79.8057 34.5325 79.79 34.0484 79.79C33.5518 79.79 33.063 79.8057 32.582 79.8354V79.5307C32.9604 79.4571 33.1891 79.4062 33.269 79.3788C33.3489 79.3514 33.4053 79.3083 33.4398 79.2495C33.4742 79.19 33.4915 79.0607 33.4915 78.8602L33.5079 77.256C33.5079 76.4186 33.5032 75.7042 33.4954 75.112C33.4922 74.8214 33.4695 74.6389 33.4257 74.5645C33.4006 74.5183 33.3575 74.4807 33.2956 74.4533C33.2345 74.4259 32.9964 74.3757 32.582 74.3013Z" fill="white"/>
<path d="M42.1568 75.6478L41.3155 77.585L42.131 77.5889C42.3252 77.5889 42.6056 77.5881 42.9707 77.585L42.1568 75.6478ZM42.9433 79.8354V79.5315C43.2746 79.4704 43.4665 79.4211 43.519 79.3827C43.5707 79.3443 43.5973 79.2918 43.5973 79.226C43.5973 79.1876 43.5887 79.1438 43.5723 79.0944C43.5284 78.9785 43.3858 78.6315 43.1453 78.0542C42.7592 78.0456 42.438 78.0417 42.1803 78.0417C41.9696 78.0417 41.6179 78.0456 41.1252 78.0542C40.8173 78.7748 40.6638 79.1696 40.6638 79.2386C40.6638 79.3044 40.6849 79.3537 40.7296 79.385C40.7735 79.4164 40.9677 79.4649 41.3132 79.5315V79.8354C40.9677 79.8057 40.6372 79.7908 40.3223 79.7908C39.9815 79.7908 39.6361 79.8057 39.2852 79.8354V79.5315C39.5319 79.479 39.7019 79.4195 39.7951 79.3537C39.8585 79.3098 39.9165 79.244 39.9682 79.1563C40.0755 78.9832 40.3951 78.3142 40.9286 77.1487C41.2662 76.4108 41.7487 75.3188 42.3753 73.8736H42.7043C42.9597 74.5183 43.4877 75.7207 44.289 77.4816C44.7331 78.4607 44.9987 79.0177 45.0872 79.1516C45.1467 79.2448 45.207 79.3114 45.2681 79.3498C45.3285 79.3882 45.5188 79.4493 45.84 79.5315V79.8354C45.3543 79.8057 44.9031 79.7908 44.4864 79.7908C44.0744 79.7908 43.5605 79.8057 42.9433 79.8354Z" fill="white"/>
<path d="M53.5303 75.7295H53.148C52.9584 75.1507 52.8425 74.8232 52.8002 74.7457C52.7579 74.6689 52.6976 74.6149 52.6208 74.5835C52.5441 74.5522 52.2997 74.5365 51.8884 74.5365H51.4897V78.3795C51.4897 78.8565 51.5062 79.1448 51.5391 79.2435C51.5555 79.2952 51.5955 79.3375 51.6605 79.3688C51.7247 79.4002 51.9738 79.455 52.407 79.531V79.8357C51.5704 79.8059 51.033 79.7903 50.7941 79.7903C50.4706 79.7903 49.9756 79.8059 49.309 79.8357V79.531C49.7476 79.455 50.0085 79.3939 50.0907 79.35C50.1455 79.3203 50.1831 79.2701 50.2035 79.2004C50.2247 79.1299 50.2348 78.8424 50.2348 78.338V74.5365H49.5432C49.3097 74.5365 49.1562 74.5553 49.0802 74.5937C49.005 74.6321 48.9424 74.7018 48.893 74.8037C48.8194 74.9572 48.7152 75.2658 48.5805 75.7295H48.2061C48.2531 75.3261 48.2813 75.0481 48.2922 74.8945C48.3032 74.7402 48.3157 74.4418 48.3298 73.9976C49.4155 74.0274 50.4769 74.0399 51.514 74.0344C52.3921 74.0258 53.0227 74.0133 53.4073 73.9976C53.4096 74.5271 53.4512 75.1037 53.5303 75.7295Z" fill="white"/>
<path d="M55.8883 76.692C56.0261 76.6975 56.1279 76.6998 56.1937 76.6998C56.5791 76.6998 56.8627 76.609 57.046 76.4264C57.2285 76.2439 57.3202 75.9666 57.3202 75.593C57.3202 75.2421 57.234 74.9742 57.0601 74.7885C56.887 74.6037 56.652 74.5112 56.3543 74.5112C56.2337 74.5112 56.077 74.5206 55.8843 74.5402L55.8883 76.692ZM53.7529 74.3013V73.9966C54.6804 74.0271 55.2287 74.042 55.3963 74.042C55.5741 74.042 55.8326 74.0373 56.1702 74.0279C56.5079 74.0177 56.7562 74.013 56.9152 74.013C57.3241 74.013 57.6429 74.0655 57.8708 74.1697C58.0988 74.2739 58.2821 74.44 58.4207 74.6671C58.5594 74.8951 58.6291 75.1489 58.6291 75.4285C58.6291 75.6674 58.579 75.8969 58.4803 76.1178C58.3816 76.3387 58.25 76.5259 58.0855 76.6795C57.9781 76.7805 57.8066 76.891 57.5708 77.0085C57.758 77.3296 58.0306 77.7839 58.3902 78.3706C58.6534 78.8015 58.8249 79.0592 58.9056 79.1446C58.9863 79.2292 59.0732 79.295 59.1657 79.342C59.3082 79.4078 59.5683 79.4704 59.9451 79.5307V79.8354C59.4798 79.8049 59.0999 79.79 58.8069 79.79C58.4975 79.79 58.116 79.8049 57.664 79.8354C57.3303 79.0647 56.9011 78.1826 56.3778 77.1894C56.2204 77.1839 56.0559 77.173 55.8843 77.1565L55.9008 78.8688C55.9063 79.0795 55.9243 79.2111 55.9541 79.2613C55.9838 79.3122 56.0269 79.3482 56.0817 79.3702C56.1201 79.3897 56.3661 79.443 56.8181 79.5307V79.8354C56.1781 79.8049 55.665 79.79 55.2773 79.79C54.8958 79.79 54.3874 79.8049 53.7529 79.8354V79.5307C54.2167 79.4461 54.4783 79.3803 54.537 79.3333C54.5958 79.2871 54.6334 79.1947 54.6498 79.0576C54.6584 78.984 54.6631 78.2798 54.6663 76.9474L54.6624 75.7207C54.6624 75.1449 54.653 74.7979 54.6334 74.6797C54.6169 74.5951 54.5793 74.5308 54.5206 74.4885C54.461 74.4462 54.2668 74.3961 53.9378 74.3381L53.7529 74.3013Z" fill="white"/>
<path d="M62.7291 75.6478L61.8878 77.585L62.7032 77.5889C62.8975 77.5889 63.1779 77.5881 63.5429 77.585L62.7291 75.6478ZM63.5155 79.8354V79.5315C63.8469 79.4704 64.0388 79.4211 64.0913 79.3827C64.143 79.3443 64.1696 79.2918 64.1696 79.226C64.1696 79.1876 64.161 79.1438 64.1445 79.0944C64.1007 78.9785 63.9581 78.6315 63.7176 78.0542C63.3314 78.0456 63.0103 78.0417 62.7526 78.0417C62.5419 78.0417 62.1901 78.0456 61.6974 78.0542C61.3896 78.7748 61.2361 79.1696 61.2361 79.2386C61.2361 79.3044 61.2572 79.3537 61.3019 79.385C61.3457 79.4164 61.54 79.4649 61.8854 79.5315V79.8354C61.54 79.8057 61.2094 79.7908 60.8945 79.7908C60.5538 79.7908 60.2083 79.8057 59.8574 79.8354V79.5315C60.1042 79.479 60.2741 79.4195 60.3674 79.3537C60.4308 79.3098 60.4888 79.244 60.5405 79.1563C60.6478 78.9832 60.9674 78.3142 61.5008 77.1487C61.8384 76.4108 62.321 75.3188 62.9476 73.8736H63.2766C63.532 74.5183 64.0599 75.7207 64.8613 77.4816C65.3054 78.4607 65.5709 79.0177 65.6595 79.1516C65.719 79.2448 65.7793 79.3114 65.8404 79.3498C65.9007 79.3882 66.0911 79.4493 66.4122 79.5315V79.8354C65.9266 79.8057 65.4754 79.7908 65.0587 79.7908C64.6466 79.7908 64.1328 79.8057 63.5155 79.8354Z" fill="white"/>
<path d="M66.4482 74.3016V73.9969C66.825 74.0274 67.1752 74.0423 67.4995 74.0423C67.8261 74.0423 68.2115 74.0274 68.6541 73.9969C68.9878 74.4473 69.9935 75.6912 71.6698 77.7294L71.6534 75.4907C71.6393 74.9447 71.6181 74.6416 71.5899 74.5797C71.5602 74.5178 71.5132 74.47 71.4474 74.4356C71.3816 74.4011 71.1497 74.3564 70.7526 74.3016V73.9969C71.1936 74.0274 71.579 74.0423 71.9088 74.0423C72.2268 74.0423 72.6325 74.0274 73.126 73.9969V74.3016C73.0414 74.3181 72.978 74.329 72.9372 74.3345C72.613 74.3839 72.4203 74.4379 72.3568 74.4974C72.2941 74.5562 72.2565 74.6776 72.2456 74.8617C72.2182 75.2455 72.2048 76.0359 72.2048 77.2312C72.2048 77.9989 72.2197 78.877 72.2503 79.8647C72.121 79.9031 71.9933 79.9485 71.8672 80.0002L70.3076 78.031L67.9295 75.1343L67.9459 77.0918L67.9788 78.996C67.9875 79.1386 68.0008 79.2287 68.0204 79.2655C68.0392 79.3023 68.0666 79.3321 68.1026 79.354C68.1629 79.39 68.3572 79.4378 68.687 79.4981C68.7253 79.5036 68.7825 79.5146 68.8593 79.531V79.8357C68.387 79.806 68.0078 79.7903 67.7219 79.7903C67.4775 79.7903 67.0624 79.806 66.4772 79.8357V79.531C66.5618 79.5146 66.6268 79.5028 66.6707 79.4942C66.9856 79.4449 67.1736 79.3971 67.2339 79.3501C67.2723 79.3203 67.2997 79.2772 67.3162 79.2208C67.3326 79.1644 67.3506 78.7563 67.3702 77.9965C67.4 76.8967 67.4149 75.9528 67.4149 75.1656C67.4149 74.9024 67.4008 74.734 67.3718 74.6596C67.3436 74.586 67.2919 74.528 67.2175 74.4865C67.1438 74.4457 66.9558 74.398 66.6543 74.3431C66.6073 74.3345 66.5391 74.3212 66.4482 74.3016Z" fill="white"/>
<path d="M80.2421 76.8035V77.1082C79.8661 77.1763 79.628 77.2359 79.5261 77.2844C79.4768 77.3095 79.44 77.3557 79.4149 77.4247C79.3906 77.4928 79.3781 77.7035 79.3781 78.0568C79.3781 78.6216 79.3859 79.1198 79.4024 79.5521C79.2159 79.5858 79.0115 79.625 78.7898 79.672C78.2078 79.7981 77.7895 79.8772 77.5326 79.9101C77.2764 79.943 77.0007 79.9595 76.7077 79.9595C76.0247 79.9595 75.4842 79.8741 75.0863 79.7041C74.5897 79.4879 74.2097 79.1527 73.9466 78.7007C73.6834 78.2479 73.5518 77.7082 73.5518 77.0831C73.5518 75.9724 73.9614 75.117 74.7816 74.5162C75.3691 74.0877 76.1438 73.8739 77.1065 73.8739C77.7511 73.8739 78.478 73.9671 79.2872 74.1535C79.2817 74.3157 79.2794 74.4457 79.2794 74.5444C79.2794 74.8656 79.2927 75.3207 79.3201 75.9105H78.901C78.7851 75.4554 78.67 75.1389 78.5532 74.9619C78.4365 74.7849 78.2556 74.6439 78.0096 74.5381C77.7644 74.4332 77.4644 74.3799 77.1112 74.3799C76.6474 74.3799 76.2597 74.4747 75.9487 74.6635C75.637 74.853 75.3957 75.146 75.2241 75.5423C75.0526 75.9387 74.9672 76.3946 74.9672 76.9108C74.9672 77.7333 75.1615 78.356 75.5492 78.7782C75.9377 79.2012 76.4485 79.4119 77.0822 79.4119C77.4002 79.4119 77.7441 79.3407 78.1146 79.1989V77.9338C78.1146 77.6565 78.1013 77.4787 78.0739 77.3996C78.0543 77.3502 78.0167 77.3103 77.9603 77.2805C77.9047 77.25 77.7276 77.2053 77.4315 77.145C77.3986 77.1372 77.3477 77.1246 77.2796 77.1082V76.8035C77.9109 76.834 78.3848 76.8489 78.7029 76.8489C78.9363 76.8489 79.4494 76.834 80.2421 76.8035Z" fill="white"/>
<path d="M12.9688 52.405H8.74045V53.5095H9.30601C9.72116 53.5095 9.93814 53.5761 10.0439 53.6332C10.1371 53.6802 10.1543 53.8439 10.1543 53.9732C10.1543 54.0335 10.1324 54.162 10.0901 54.3954L8.25636 61.6403L5.49281 53.6105L5.46305 53.5095H6.69442V52.405H2V53.1194L2.23656 53.5095H2.52404C2.74964 53.5095 2.94781 53.5298 3.08959 53.5721C3.19534 53.6043 3.29874 53.6787 3.39901 53.7899C3.51964 53.9278 3.64653 54.144 3.77422 54.4213C3.83845 54.5724 3.93323 54.8317 4.05934 55.1999L7.26703 64.5214L7.65634 65.4778H8.64097L11.7782 53.5095H12.9688V52.405Z" fill="white"/>
<path d="M14.5947 55.7593C14.901 55.7593 15.1728 55.6418 15.3765 55.4193C15.5778 55.2 15.6812 54.9282 15.6812 54.6086C15.6812 54.3078 15.5747 54.0501 15.3655 53.8347C14.9613 53.4344 14.2054 53.4414 13.8028 53.8456C13.5921 54.0556 13.4785 54.3321 13.4785 54.6415C13.4785 54.9532 13.5921 55.2274 13.8012 55.4366C14.0088 55.6488 14.2861 55.7593 14.5947 55.7593Z" fill="white"/>
<path d="M22.5412 64.3619C22.5303 64.3392 22.4942 64.2475 22.4942 63.9969V60.3803C22.4942 59.8719 22.47 59.4466 22.4198 59.1152C22.3689 58.7549 22.2365 58.4071 22.025 58.082C21.812 57.7515 21.5315 57.493 21.1845 57.3058C20.5704 56.983 19.849 56.9541 19.1628 57.2196L19.2035 57.164L18.4132 56.4903L16.093 59.2868L16.8434 60.0677L17.0251 59.8359V64.4081H15.8494C15.5846 64.4081 15.5031 64.376 15.5031 64.376C15.4836 64.3572 15.4389 64.2514 15.4389 63.9953L15.406 57.916L16.0616 57.1052L15.1914 56.4817L12.8359 59.2758L13.671 59.9941L13.8613 59.7622V64.4081H13.0623V65.4617H19.6445V64.4081H19.256C18.7876 64.4081 18.6709 64.3572 18.6709 64.3572C18.6576 64.3447 18.6019 64.2538 18.6019 63.9969V59.8931C18.6019 59.4646 18.7202 59.0596 18.9552 58.6977C19.1628 58.3773 19.4244 58.2293 19.7777 58.2293C20.2446 58.2293 20.532 58.4251 20.7169 58.8834C20.8031 59.0533 20.8563 59.2257 20.8798 59.3972C20.9088 59.597 20.9182 59.8445 20.9182 60.1351V64.4081H20.1208V65.4617H23.5024V64.4081H23.1154C22.6862 64.4081 22.5608 64.3572 22.5412 64.3619Z" fill="white"/>
<path d="M28.2595 64.4086C27.8225 64.4086 27.3963 64.2911 26.9961 64.0593C26.6396 63.8556 26.2801 63.5665 25.9715 63.2399L25.9339 59.357C26.559 58.7021 27.3321 58.3684 28.2243 58.3684C29.046 58.3684 29.758 58.688 30.3299 59.3163C30.9126 59.957 31.2111 60.7074 31.2111 61.5456C31.2111 62.3446 30.933 63.03 30.3855 63.5799C29.8238 64.1454 29.1478 64.4086 28.2595 64.4086ZM28.5055 57.036C27.9086 57.036 27.3431 57.1527 26.819 57.3815C26.6201 57.4676 26.4266 57.571 26.2315 57.687L26.5629 57.3055L25.807 56.5323L23.4609 59.3601L24.2215 60.1317L24.3962 59.9108V68.8046H23.5965V69.8582H27.0141V68.8046H26.6271C26.1634 68.8046 26.0467 68.7568 26.042 68.7568C26.042 68.7568 25.9715 68.6918 25.9715 68.3933V65.2045C26.1657 65.3094 26.3639 65.3948 26.5676 65.4598C26.9937 65.6016 27.4472 65.6713 27.9149 65.6713C29.1972 65.6713 30.3056 65.2123 31.2072 64.3107C31.6905 63.8525 32.0571 63.3566 32.2944 62.8349C32.5294 62.3054 32.6477 61.7132 32.6477 61.0748C32.6477 59.9743 32.2364 59.0155 31.4171 58.2228C30.604 57.4363 29.6256 57.036 28.5055 57.036Z" fill="white"/>
<path d="M43.2872 61.3728C43.6538 61.0634 44.0737 60.9067 44.5374 60.9067C44.792 60.9067 45.0254 60.9662 45.2322 61.083C45.3857 61.1683 45.5541 61.3062 45.7131 61.4323L45.7523 63.9734C45.0458 64.6604 43.9491 64.629 43.3044 63.8872C42.9386 63.4689 42.7655 63.0068 42.7655 62.4318C42.7655 62.0096 42.9339 61.6728 43.2872 61.3728ZM43.3601 58.8474C43.6585 58.4017 44.0267 58.1956 44.5202 58.1956C44.9964 58.1956 45.3246 58.3821 45.5353 58.7651C45.5933 58.8928 45.6419 59.0197 45.6677 59.1474C45.6889 59.2288 45.7131 59.4027 45.7131 59.7529V59.8077C45.6748 59.7952 45.638 59.7834 45.6035 59.7732C45.3928 59.7121 45.1468 59.6777 44.8726 59.6777C44.1418 59.6777 43.4721 59.8766 42.876 60.2683C42.9034 59.7623 43.0655 59.2868 43.3601 58.8474ZM35.2637 58.9821C35.4023 58.8787 35.5551 58.7831 35.718 58.7017C36.5938 58.2677 37.6317 58.2677 38.4933 58.6923C38.6602 58.7769 38.8184 58.8716 38.9656 58.9821H35.2637ZM47.3612 64.3572C47.3612 64.3572 47.2876 64.2938 47.2876 63.9969V60.3803C47.2876 59.7858 47.2547 59.3377 47.1819 59.0111C47.1082 58.6711 46.9915 58.3813 46.8349 58.1432C46.5662 57.7499 46.2458 57.464 45.8855 57.2948C45.1797 56.9517 44.0564 56.9651 43.306 57.3269C43.1611 57.3951 43.0131 57.4797 42.8721 57.5807V56.9666H41.7848V60.8025H42.218C41.7848 61.2459 41.52 61.759 41.4174 62.3347L40.6325 62.0002L40.4688 62.3269C40.15 62.9614 39.7192 63.476 39.1889 63.8543C38.0539 64.6635 36.2491 64.5296 35.118 63.5159C34.4631 62.9324 34.1435 62.2524 34.1435 61.4339V61.2929C34.1435 60.8762 34.2117 60.5025 34.3488 60.1774H41.5044L41.3187 59.6604C41.0508 58.892 40.5566 58.2528 39.8539 57.764C39.1521 57.2807 38.3868 57.0363 37.5792 57.0363C36.3259 57.0363 35.1963 57.4867 34.225 58.3735C33.2419 59.2672 32.7422 60.3631 32.7422 61.6313C32.7422 62.7593 33.1754 63.7306 34.0347 64.51C34.8791 65.2808 35.8872 65.6716 37.0238 65.6716C38.0468 65.6716 38.9515 65.4147 39.7059 64.9095C40.4375 64.4262 40.9913 63.7306 41.3689 62.847C41.3689 62.8587 41.365 62.8713 41.365 62.883C41.365 63.6726 41.6477 64.3431 42.207 64.8766C42.7624 65.4045 43.4509 65.6716 44.2585 65.6716C44.604 65.6716 44.9619 65.616 45.3191 65.5048C45.4547 65.4633 45.587 65.4155 45.7131 65.363V65.4617H48.3294V64.4074H47.944C47.4795 64.4074 47.3628 64.3572 47.3612 64.3572Z" fill="white"/>
<path d="M52.7348 57.1243C52.7332 57.122 52.7277 57.1212 52.7262 57.1196C52.2334 56.9786 51.7517 57.0053 51.2856 57.1972L50.5806 56.3637L48.2197 59.2542L48.9733 60.021L49.1542 59.8033V64.4076H48.3545V65.4612H51.7721V64.4076H51.3859C50.9175 64.4076 50.8 64.3575 50.8 64.3575C50.7874 64.3465 50.7271 64.251 50.7271 63.9948L50.6958 59.2557C50.8117 59.0043 51.0013 58.7622 51.2613 58.5312C51.4869 58.3299 51.6898 58.2288 51.8755 58.2288L51.9554 58.2249C52.2953 58.2711 52.4998 58.4505 52.6181 58.8053C52.669 58.9416 52.7003 59.0662 52.7113 59.179C52.7277 59.3051 52.7348 59.4727 52.7348 59.6842V60.5929H53.822V56.5854H52.7348V57.1243Z" fill="white"/>
<path d="M56.6011 64.3635C56.6011 64.3635 56.5368 64.2937 56.5368 63.9953L56.4985 53.1299L57.0342 52.5401L56.2666 51.7787L53.8281 54.6119L54.6671 55.331L54.9624 54.9785V64.4073H54.1603V65.4617H57.3734V64.4073H56.9833C56.688 64.4073 56.6089 64.3689 56.6011 64.3635Z" fill="white"/>
<path d="M65.9593 62.4335C65.9593 62.815 65.9193 63.1314 65.8441 63.3852C65.7846 63.5842 65.6506 63.7565 65.429 63.9077C65.1822 64.0769 64.89 64.1873 64.554 64.2406C64.2516 64.2884 63.885 64.3158 63.4636 64.326V53.589H64.5328V52.4626H60.4502V53.589H60.8489C61.3996 53.589 61.5719 53.6619 61.6079 53.6846C61.6079 53.6846 61.669 53.7528 61.669 54.0426V64.3283H60.5606V65.4179H65.9593V66.155H67.0457V59.4483H65.9593V62.4335Z" fill="white"/>
<path d="M79.4047 58.35C79.3977 58.3899 79.3734 58.4823 79.288 58.6437L78.8345 59.351L78.135 58.3312L78.9606 58.3327C79.2254 58.3327 79.3444 58.3625 79.4047 58.35ZM82.0931 64.0478C81.9599 63.9233 81.7155 63.6452 81.309 63.0295L79.5943 60.4955L81.0724 58.3327H82.3015V57.2792H75.1302V57.9434L75.3464 58.3327H75.6198C75.9981 58.3327 76.2636 58.4393 76.4509 58.6641C76.5065 58.7299 76.6678 58.9578 76.9334 59.3471L77.8976 60.7712L75.514 64.441H74.5129V64.4081H74.1267C73.6897 64.4081 73.5588 64.3588 73.5526 64.3627C73.5432 64.3416 73.5048 64.2507 73.5048 63.9977V57.2792H70.8862V58.3327H71.277C71.776 58.3327 71.8731 58.3938 71.8771 58.3899C71.8935 58.4111 71.9311 58.5137 71.9311 58.7455V62.952C71.9311 63.3632 71.8058 63.7408 71.5614 64.0705C71.147 64.6361 70.3026 64.6431 69.943 64.0744C69.7222 63.7298 69.6094 63.176 69.6094 62.4318V57.2792H67.0283V58.3327H67.4129C67.8132 58.3327 67.9636 58.3766 67.9848 58.3766H67.9879C67.9981 58.4009 68.0365 58.4964 68.0365 58.7455V62.6739C68.0365 63.5308 68.2111 64.2178 68.555 64.7215C68.9929 65.3513 69.6462 65.6716 70.5102 65.6716C70.8658 65.6716 71.2418 65.5745 71.6209 65.3842C71.7274 65.3332 71.8301 65.2761 71.9311 65.2165V65.4617H78.3731V64.441H77.9838C77.5945 64.441 77.4182 64.4254 77.3658 64.4254C77.3689 64.3886 77.3908 64.2789 77.4981 64.0478C77.6086 63.8207 77.7057 63.6436 77.7982 63.4956L78.6943 61.9485L80.3823 64.441H79.6852V65.4617H83.6566V64.441H83.0605C82.6986 64.441 82.3821 64.3102 82.0931 64.0478Z" fill="white"/>
<path d="M96.4202 60.5924V56.5849H95.333V57.1238C95.3291 57.1215 95.3267 57.1207 95.3197 57.1199C94.8309 56.9789 94.3499 57.0048 93.8807 57.1975L93.1812 56.3617L90.8171 59.2544L91.5676 60.0197L91.7516 59.7981V64.4087H90.6072C90.1795 64.4087 90.0385 64.3687 90.0385 64.3617C90.0244 64.339 89.986 64.2465 89.986 63.9967V57.2789H87.3682V58.3317H87.7559C88.2526 58.3317 88.3677 58.403 88.3583 58.3897C88.3748 58.4108 88.4116 58.5142 88.4116 58.7461V62.9517C88.4116 63.3653 88.2878 63.7429 88.0442 64.0703C87.6298 64.6351 86.7854 64.6421 86.4227 64.0742C86.205 63.7327 86.0922 63.1773 86.0922 62.4316V57.2789H83.5088V58.3317H83.8989C84.2937 58.3317 84.4464 58.3771 84.4652 58.3771H84.4707C84.4793 58.403 84.5146 58.497 84.5146 58.7461V62.6736C84.5146 63.5267 84.6908 64.2128 85.0363 64.7212C85.4734 65.3518 86.1298 65.6714 86.9883 65.6714C87.351 65.6714 87.723 65.575 88.1022 65.387C88.2056 65.3338 88.3097 65.2782 88.4116 65.2178V65.4615H94.3679V64.4087H93.9817C93.5149 64.4087 93.3974 64.3578 93.3974 64.3578C93.3817 64.3444 93.323 64.2536 93.323 63.9951L93.2893 59.256C93.4037 59.0054 93.594 58.7633 93.8549 58.5291C94.0773 58.3317 94.288 58.2291 94.469 58.2291L94.5504 58.2236C94.8935 58.2729 95.0948 58.4508 95.2131 58.8048C95.2648 58.9427 95.2954 59.0664 95.3071 59.1785C95.3267 59.3054 95.333 59.473 95.333 59.6829V60.5924H96.4202Z" fill="white"/>
<path d="M100.72 57.2794V58.2844L101.062 58.3314C101.476 58.3831 101.59 58.4097 101.588 58.4081C101.594 58.4214 101.625 58.4763 101.625 58.6423C101.625 58.9079 101.539 59.4922 101.124 60.7581C101.04 60.9993 100.899 61.402 100.697 61.9652L99.4295 58.3329H100.001V57.2794H96.6519V58.3329H97.2135C97.4806 58.3329 97.6725 58.4293 97.819 58.6361C97.9201 58.7818 98.0477 59.1061 98.2052 59.6042L99.811 64.1577C99.6457 64.6222 99.4538 65.071 99.2352 65.4956C98.9814 65.9765 98.7065 66.441 98.4198 66.8789C98.1817 67.24 97.9295 67.5761 97.6686 67.88C97.2542 68.3539 97.0451 68.4518 97.0232 68.4824L96.9002 68.3038H96.0957V70.3694L96.5508 70.2887C97.0232 70.2088 97.5096 69.9495 97.9913 69.5203C98.5083 69.0659 99.0386 68.3719 99.5689 67.4547C99.9488 66.7794 100.32 66.0196 100.666 65.1924C100.805 64.865 101.108 64.0966 101.577 62.8816L103.289 58.3329H104.14V57.2794H100.72Z" fill="white"/>
<path d="M72.0278 7.00001C61.5384 8.24392 50.8014 11.6553 50.0949 22.0146C49.7588 26.8603 51.2675 30.4988 52.9658 34.0072C48.7006 29.8486 42.5492 26.5226 33.9053 27.3326C39.1637 28.8068 45.3715 31.6291 48.7076 35.3632C49.4142 36.1512 50.4403 37.5212 50.2014 38.6985C49.7972 40.667 46.1344 40.2675 43.9161 40.3694C48.5157 42.1953 53.6511 45.4789 60.213 45.2706C63.4865 45.1617 65.8944 43.1909 65.6351 39.5335C65.1831 32.9623 60.2905 27.3522 59.7798 19.9294C59.2103 11.5581 65.1487 8.47812 71.8155 7.09948C71.9495 7.14648 72.1555 7.09948 72.2181 7.05875C72.2573 7.03055 72.226 7.00001 72.0348 7.00001H72.0278Z" fill="url(#paint0_linear_4011_11613)"/>
</g>
<defs>
<linearGradient id="paint0_linear_4011_11613" x1="33.9057" y1="26.14" x2="72.2327" y2="26.14" gradientUnits="userSpaceOnUse">
<stop stop-color="#C3781C"/>
<stop offset="0.944135" stop-color="#E4AD11"/>
<stop offset="1" stop-color="#E4AD11"/>
</linearGradient>
<clipPath id="clip0_4011_11613">
<rect width="106" height="80" fill="white"/>
</clipPath>
</defs>
</svg>
