<svg width="19" height="19" viewBox="0 0 19 19" fill="none" xmlns="http://www.w3.org/2000/svg">
<g clip-path="url(#clip0_39_1380)">
<path d="M0.656927 9.26427C0.332721 6.67891 1.24201 3.97368 3.07038 2.11665C3.23851 1.9636 3.51597 2.00733 3.65847 2.17395C4.24883 2.76356 4.83919 3.35316 5.42804 3.94427C5.61578 4.10034 5.62181 4.40494 5.45141 4.57534C4.67784 5.43487 4.19756 6.55828 4.14931 7.71637C4.08673 8.95288 4.51347 10.2007 5.30514 11.1507C6.11038 12.1316 7.27828 12.8004 8.5276 13.0183C9.74074 13.2347 11.0255 13.0379 12.1105 12.4505C13.1328 11.9024 13.9743 11.0135 14.4395 9.94812C14.9243 8.85185 14.9929 7.57764 14.6227 6.43689C14.3927 5.71082 13.9871 5.04582 13.4676 4.49014C13.307 4.33935 13.2791 4.05963 13.4405 3.89903C14.0399 3.28983 14.6483 2.68891 15.2522 2.08348C15.3978 1.91383 15.685 1.87689 15.8517 2.03673C17.1741 3.35844 18.057 5.11518 18.3179 6.96768C18.5984 8.89256 18.2191 10.9079 17.245 12.593C16.1359 14.539 14.263 16.0319 12.118 16.6773C10.0318 17.3167 7.71105 17.1621 5.7334 16.237C3.90502 15.3933 2.38201 13.9095 1.49609 12.1015C1.05804 11.2125 0.772284 10.2482 0.656927 9.26427Z" fill="#1F419B"/>
<path d="M6.53616 8.43477C6.38537 7.69739 6.51807 6.90422 6.91239 6.26184C7.34366 5.5433 8.08557 5.02005 8.90965 4.86096C9.6606 4.71092 10.4666 4.85569 11.1135 5.26735C11.8584 5.73255 12.3824 6.53628 12.4978 7.40711C12.6064 8.16636 12.4149 8.96406 11.9655 9.58608C11.5124 10.2262 10.8014 10.6778 10.027 10.8098C9.29267 10.9402 8.51156 10.7902 7.88275 10.3868C7.19438 9.95402 6.69449 9.23323 6.53616 8.43477Z" fill="#00AEEF"/>
</g>
<defs>
<clipPath id="clip0_39_1380">
<rect width="19" height="19" fill="white"/>
</clipPath>
</defs>
</svg>
