<svg width="23" height="19" viewBox="0 0 23 19" fill="none" xmlns="http://www.w3.org/2000/svg">
<path d="M6.5483 0.673129C6.68886 0.593342 6.8687 0.609486 7.01213 0.672819C7.12522 0.722182 7.1955 0.825254 7.27472 0.912492C8.5723 2.38375 9.87052 3.85439 11.1681 5.32565C11.1994 5.35234 11.2039 5.39208 11.2026 5.43058C11.2016 7.72921 11.2023 10.0278 11.2023 12.3265C9.98329 10.9691 8.77163 9.60592 7.54784 8.25264C7.29995 7.97509 7.03513 7.70685 6.84634 7.38553C6.59494 6.96424 6.41637 6.48272 6.43777 5.98971C6.43841 4.29182 6.43777 2.59362 6.43809 0.895727C6.4333 0.80911 6.46844 0.718146 6.5483 0.673129Z" fill="#E00500"/>
<path d="M15.6678 0.998596C15.8193 0.809838 16.0247 0.60742 16.2936 0.631325C16.4639 0.639397 16.5789 0.802698 16.5661 0.96041C16.5677 2.60615 16.5661 4.25157 16.5671 5.89731C16.5805 6.52691 16.3294 7.14007 15.9544 7.64518C14.5715 9.20802 13.1845 10.7678 11.7987 12.3284C11.7987 10.0605 11.8 7.79296 11.7984 5.52507C11.8032 5.45615 11.7786 5.37325 11.839 5.3211C13.1161 3.88088 14.3917 2.43974 15.6678 0.998596Z" fill="#E00500"/>
<path d="M0.787971 7.15572C0.877096 7.09921 0.987624 7.10511 1.08953 7.10449C1.99547 7.10853 2.90174 7.09984 3.80736 7.10884C5.09951 7.22588 6.37378 7.78502 7.23372 8.74402C8.44505 10.1141 9.64457 11.4944 10.8415 12.8762C10.9584 13.0187 11.0917 13.1494 11.1987 13.2991C11.207 14.9923 11.199 16.6865 11.2025 18.3803C10.7364 18.3545 10.3065 18.1413 9.92376 17.8954C9.42639 17.5713 9.00983 17.1475 8.6233 16.7066C6.0176 13.793 3.43489 10.8601 0.842915 7.93497C0.744527 7.83065 0.649652 7.7133 0.624096 7.57018C0.589916 7.41743 0.64486 7.23796 0.787971 7.15572Z" fill="#E00500"/>
<path d="M18.3337 7.2531C18.7007 7.16275 19.078 7.09476 19.4581 7.1047C20.3002 7.10501 21.1419 7.10501 21.9837 7.10439C22.1182 7.09569 22.2606 7.1522 22.329 7.26955C22.4424 7.4552 22.3721 7.69519 22.2332 7.84917C19.7469 10.6585 17.2642 13.4709 14.7674 16.2719C14.3975 16.6767 14.0493 17.1033 13.6347 17.4671C13.2788 17.7798 12.8821 18.0564 12.4361 18.2334C12.233 18.3135 12.0183 18.3696 11.7988 18.3811C11.7988 16.6851 11.7991 14.9891 11.7988 13.293C13.0587 11.8373 14.3202 10.3828 15.5948 8.93888C15.8542 8.63277 16.141 8.34653 16.4697 8.10996C17.0224 7.70422 17.6651 7.42198 18.3337 7.2531Z" fill="#E00500"/>
</svg>
