<svg width="30" height="19" viewBox="0 0 30 19" fill="none" xmlns="http://www.w3.org/2000/svg">
<path fill-rule="evenodd" clip-rule="evenodd" d="M10.832 16.9445H18.8613V2.02832H10.832V16.9445Z" fill="#FF5F00"/>
<path fill-rule="evenodd" clip-rule="evenodd" d="M11.3417 9.48631C11.3417 6.46018 12.7123 3.76501 14.8465 2.02823C13.2855 0.757851 11.3162 0 9.17556 0C4.10793 0 0 4.24723 0 9.48631C0 14.7254 4.10793 18.9726 9.17556 18.9726C11.3162 18.9726 13.2855 18.2148 14.8465 16.9444C12.7123 15.2073 11.3417 12.5124 11.3417 9.48631Z" fill="#EB001B"/>
<path fill-rule="evenodd" clip-rule="evenodd" d="M29.4067 15.3647V14.9965H29.3137L29.2069 15.2498L29.0998 14.9965H29.0068V15.3647H29.0723V15.0869L29.1727 15.3265H29.2408L29.3412 15.0864V15.3647H29.4067ZM28.8176 15.3647V15.0593H28.9369V14.9971H28.6336V15.0593H28.7526V15.3647H28.8176ZM29.6932 9.48631C29.6932 14.7254 25.585 18.9726 20.5176 18.9726C18.377 18.9726 16.4074 18.2148 14.8467 16.9444C16.9809 15.2076 18.3515 12.5124 18.3515 9.48631C18.3515 6.46044 16.9809 3.76528 14.8467 2.02823C16.4074 0.757851 18.377 0 20.5176 0C25.585 0 29.6932 4.24723 29.6932 9.48631Z" fill="#F79E1B"/>
</svg>
