<svg width="21" height="21" viewBox="0 0 21 21" fill="none" xmlns="http://www.w3.org/2000/svg">
<g clip-path="url(#clip0_39_1366)">
<path d="M1.90907 7.63668H5.72716C6.78151 7.63668 7.63619 6.78196 7.63623 5.72761V1.90956C7.63623 0.855211 6.78155 0.000529297 5.72721 0.000488281H5.72716H1.90907C0.854723 0.000488281 0 0.85517 0 1.90952V1.90956V5.72765C0 6.78196 0.854723 7.63668 1.90907 7.63668ZM1.90907 1.90956H5.72716V5.72765H1.90907V1.90956Z" fill="#1B43BA"/>
<path d="M5.72712 13.3638H1.90907C0.854723 13.3638 0 14.2185 0 15.2728V15.2728V19.0909C0 20.1453 0.854723 21 1.90907 21H5.72716C6.78151 21 7.63619 20.1453 7.63623 19.0909V15.2728C7.63619 14.2185 6.78151 13.3638 5.72712 13.3638C5.72716 13.3638 5.72712 13.3638 5.72712 13.3638ZM5.72712 19.0909H1.90907V15.2728H5.72716V19.0909H5.72712Z" fill="#1B43BA"/>
<path d="M19.0904 13.3638H15.2724C14.218 13.3638 13.3633 14.2185 13.3633 15.2728V15.2728V19.0909C13.3633 20.1453 14.218 21 15.2724 21H19.0904C20.1448 21 20.9995 20.1453 20.9995 19.0909V15.2728C20.9995 14.2185 20.1448 13.3638 19.0904 13.3638ZM19.0904 19.0909H15.2724V15.2728H19.0904V19.0909Z" fill="#1B43BA"/>
<path d="M19.5675 2.86403C20.3583 2.86403 20.9993 2.223 20.9993 1.43226C20.9993 0.641514 20.3583 0.000488281 19.5675 0.000488281C18.7768 0.000488281 18.1357 0.641514 18.1357 1.43226C18.1357 2.223 18.7768 2.86403 19.5675 2.86403Z" fill="#1B43BA"/>
<path d="M19.5675 7.63698C20.3583 7.63698 20.9993 6.99595 20.9993 6.20521C20.9993 5.41446 20.3583 4.77344 19.5675 4.77344C18.7768 4.77344 18.1357 5.41446 18.1357 6.20521C18.1357 6.99595 18.7768 7.63698 19.5675 7.63698Z" fill="#1B43BA"/>
<path d="M14.7951 2.86403C15.5858 2.86403 16.2268 2.223 16.2268 1.43226C16.2268 0.641514 15.5858 0.000488281 14.7951 0.000488281C14.0043 0.000488281 13.3633 0.641514 13.3633 1.43226C13.3633 2.223 14.0043 2.86403 14.7951 2.86403Z" fill="#1B43BA"/>
<path d="M10.4995 7.63656C11.0266 7.63656 11.454 7.20922 11.454 6.68205V5.72753C11.454 5.20036 11.8813 4.77302 12.4085 4.77302H12.4085C12.9357 4.77302 13.363 4.34568 13.363 3.81851C13.363 3.29133 12.9357 2.86399 12.4085 2.86399C11.8813 2.86399 11.454 2.43665 11.454 1.90948V0.954924C11.4542 0.42771 11.027 0.000205152 10.4998 7.38089e-08C9.97267 -0.000205004 9.54517 0.426972 9.54492 0.954145C9.54492 0.95435 9.54492 0.954637 9.54492 0.954842V6.68201C9.54492 7.20922 9.9723 7.63656 10.4995 7.63656Z" fill="#1B43BA"/>
<path d="M10.4998 9.54566C9.9726 9.54566 9.54526 9.11832 9.54526 8.59115C9.54493 8.06397 9.11735 7.63692 8.59017 7.63721C8.06345 7.63754 7.63656 8.06443 7.63623 8.59115C7.63623 9.11832 7.20889 9.54566 6.68172 9.54566H0.954596C0.427341 9.54566 0 9.973 0 10.5002C0 11.0273 0.427341 11.4547 0.954514 11.4547H6.68168C7.20885 11.4547 7.63619 11.882 7.63619 12.4092V12.4092C7.63619 12.9364 8.06353 13.3637 8.59071 13.3637C9.11788 13.3637 9.54522 13.791 9.54522 14.3182V14.3182V16.2273C9.54522 16.7545 9.97256 17.1818 10.4997 17.1818C11.0269 17.1818 11.4543 16.7545 11.4543 16.2273V10.5002C11.4543 9.973 11.027 9.54566 10.4999 9.54566C10.4998 9.54566 10.4998 9.54566 10.4998 9.54566Z" fill="#1B43BA"/>
<path d="M20.0449 9.54552H17.1813C16.6541 9.54552 16.2268 9.11818 16.2268 8.591V6.20472C16.2268 5.41398 15.5857 4.77295 14.795 4.77295C14.0042 4.77295 13.3632 5.41398 13.3632 6.20472V6.68202C13.3632 7.20919 12.9359 7.63653 12.4087 7.63653C11.8815 7.6362 11.4539 8.0633 11.4536 8.59047C11.4533 9.11764 11.8804 9.54523 12.4076 9.54556C12.408 9.54556 12.4083 9.54556 12.4087 9.54556C12.9359 9.54556 13.3632 9.97286 13.3632 10.5V10.5001C13.3632 11.0272 13.7906 11.4546 14.3177 11.4546H20.0449C20.5721 11.4548 20.9996 11.0276 20.9998 10.5004C21 9.97327 20.5728 9.54576 20.0457 9.54552C20.0453 9.54552 20.0451 9.54552 20.0449 9.54552Z" fill="#1B43BA"/>
<path d="M10.4999 20.9998C11.0271 20.9998 11.4544 20.5725 11.4544 20.0453C11.4544 19.5182 11.0271 19.0908 10.4999 19.0908C9.97276 19.0908 9.54541 19.5182 9.54541 20.0453C9.54541 20.5725 9.97276 20.9998 10.4999 20.9998Z" fill="#1B43BA"/>
</g>
<defs>
<clipPath id="clip0_39_1366">
<rect width="21" height="21" fill="white"/>
</clipPath>
</defs>
</svg>
