<svg width="40" height="12" viewBox="0 0 40 12" fill="none" xmlns="http://www.w3.org/2000/svg">
<path d="M15.1877 0.211026L9.95172 11.8164H6.53422L3.95937 2.5556C3.80086 1.98449 3.66539 1.77666 3.19008 1.53414C2.41148 1.14315 1.13078 0.776396 0 0.547954L0.0791406 0.211098H5.5775C6.27875 0.211098 6.90922 0.645557 7.06773 1.39452L8.42922 8.11149L11.792 0.211098H15.1877V0.211026ZM28.5741 8.02564C28.5893 4.96432 24.0138 4.79771 24.0466 3.42815C24.0555 3.01009 24.4821 2.56772 25.4163 2.45604C25.8802 2.39871 27.1569 2.35669 28.6038 2.97373L29.1709 0.513848C28.3924 0.251372 27.3917 0 26.148 0C22.9535 0 20.7047 1.57826 20.6857 3.83648C20.6648 5.5064 22.2902 6.4383 23.5162 6.99446C24.7751 7.56353 25.196 7.92688 25.1916 8.43724C25.1834 9.21618 24.1871 9.55659 23.2579 9.5719C21.6325 9.59541 20.6898 9.16393 19.9369 8.83825L19.3517 11.3827C20.1059 11.7043 21.5021 11.9835 22.9471 12C26.3423 11.9999 28.5634 10.4384 28.5741 8.02564ZM37.01 11.8165H40L37.391 0.211098H34.6308C34.0105 0.211098 33.4877 0.547084 33.2547 1.0618L28.4077 11.8165H31.8002L32.4737 10.0833H36.6207L37.01 11.8165ZM33.4034 7.7046L35.1055 3.34694L36.0846 7.7046H33.4034ZM19.8066 0.211026L17.1324 11.8164H13.8997L16.5745 0.211026H19.8066Z" fill="#1434CB"/>
</svg>
