<?xml version="1.0" encoding="UTF-8"?>
<svg version="1.1" xmlns="http://www.w3.org/2000/svg" width="21" height="21" viewBox="0 0 225 225">
<path d="M0 0 C1.22634155 -0.00997513 2.45268311 -0.01995026 3.71618652 -0.03022766 C5.06220995 -0.03112333 6.40823355 -0.03178697 7.7542572 -0.03224182 C9.1823113 -0.03986977 10.61036132 -0.04829835 12.03840637 -0.0574646 C15.90864324 -0.07936138 19.77880111 -0.08820267 23.64909291 -0.09329104 C26.07243161 -0.09694212 28.49574986 -0.10318624 30.91908073 -0.11029243 C39.38905107 -0.13477591 47.85896033 -0.14783521 56.32896423 -0.15138245 C64.19745291 -0.1550108 72.06554987 -0.18485848 79.93391901 -0.22678703 C86.70872282 -0.26160952 93.48339764 -0.27693299 100.25829023 -0.27762848 C104.29581192 -0.27841762 108.33293481 -0.28698642 112.37036324 -0.31562614 C116.17500357 -0.34201105 119.97892039 -0.34390013 123.7836113 -0.3279705 C125.82433416 -0.32532239 127.86504424 -0.34720261 129.90563965 -0.37016296 C144.64753417 -0.2546531 156.07665895 5.23673391 166.81260681 15.14524841 C177.49893324 26.39278236 180.08409462 39.26239172 180.09165955 54.1572113 C180.09929012 55.56408626 180.10771915 56.97095707 180.11688232 58.37782288 C180.13875264 62.18608634 180.14761675 65.99426954 180.15270877 69.8025887 C180.15636285 72.18825102 180.16260848 74.57389265 180.16971016 76.95954704 C180.19418399 85.30099781 180.20725095 93.64238664 180.21080017 101.98387146 C180.21442826 109.7279637 180.24427649 117.4716579 180.28620476 125.21562868 C180.32104747 131.88770922 180.33635106 138.55965881 180.33704621 145.23182958 C180.33783463 149.20621383 180.34636994 153.18019261 180.37504387 157.15448189 C180.40146406 160.90004607 180.40329881 164.64487565 180.38738823 168.39049149 C180.38474544 170.39642258 180.40659572 172.40234094 180.42958069 174.40814209 C180.32047987 188.14325421 176.04105701 200.02956312 166.78526306 210.27415466 C154.55545083 221.96353329 142.37861193 225.57608778 125.87046814 225.56468201 C124.46034898 225.57067335 123.05023309 225.57748029 121.64012146 225.58503723 C117.82371857 225.60264622 114.00740548 225.60739054 110.19096589 225.6086688 C107.80129909 225.61009425 105.41165482 225.61437135 103.02199364 225.61966324 C94.66987545 225.63814906 86.31782095 225.64633597 77.96568298 225.64476013 C70.20570264 225.64356023 62.4460011 225.66463646 54.68609124 225.69624746 C48.00385137 225.72248894 41.32170209 225.73312409 34.63941115 225.73184931 C30.65733283 225.73134184 26.67550228 225.73690477 22.69347572 225.75820541 C18.94306655 225.77772032 15.19313806 225.77762309 11.44271088 225.76317215 C9.42926169 225.76011919 7.41581176 225.77666864 5.4024353 225.79405212 C-8.52932089 225.69875686 -20.32390137 221.4555618 -30.69129944 212.02024841 C-38.89718643 203.47130595 -45.43596293 192.14192209 -45.4888916 180.05941772 C-45.49886673 178.83307617 -45.50884186 177.60673462 -45.51911926 176.3432312 C-45.52001493 174.99720777 -45.52067857 173.65118417 -45.52113342 172.30516052 C-45.52876137 170.87710642 -45.53718996 169.44905641 -45.5463562 168.02101135 C-45.56825298 164.15077449 -45.57709427 160.28061662 -45.58218265 156.41032481 C-45.58583372 153.98698612 -45.59207784 151.56366786 -45.59918404 149.14033699 C-45.62366751 140.67036665 -45.63672681 132.2004574 -45.64027405 123.73045349 C-45.6439024 115.86196482 -45.67375008 107.99386785 -45.71567863 100.12549871 C-45.75050112 93.35069491 -45.76582459 86.57602008 -45.76652008 79.80112749 C-45.76730922 75.7636058 -45.77587802 71.72648292 -45.80451775 67.68905449 C-45.83090265 63.88441416 -45.83279173 60.08049734 -45.81686211 56.27580643 C-45.81421399 54.23508356 -45.83609421 52.19437349 -45.85905457 50.15377808 C-45.7435447 35.41188356 -40.25215769 23.98275878 -30.34364319 13.24681091 C-22.40399286 5.70331778 -11.02167251 0.04828158 0 0 Z " fill="#FDFEFE" transform="translate(45.21473693847656,-0.2741546630859375)"/>
<path d="M0 0 C5.61181871 3.09154085 10.20150421 6.67984001 12.171875 12.9375 C13.07475081 19.90021798 13.28549803 27.06579242 9.5859375 33.25390625 C6.46649021 36.96794432 2.49420217 39.77633641 -1.828125 41.9375 C-4.11732278 42.06085276 -6.41063718 42.11308478 -8.703125 42.125 C-9.93804687 42.13917969 -11.17296875 42.15335938 -12.4453125 42.16796875 C-15.828125 41.9375 -15.828125 41.9375 -19.828125 39.9375 C-19.828125 46.2075 -19.828125 52.4775 -19.828125 58.9375 C-23.458125 58.9375 -27.088125 58.9375 -30.828125 58.9375 C-30.9274219 52.81775582 -30.99979596 46.69848648 -31.04785156 40.578125 C-31.06789659 38.49861475 -31.09514013 36.41916037 -31.12988281 34.33984375 C-31.17871448 31.34100513 -31.20116528 28.34291537 -31.21875 25.34375 C-31.23939514 24.42259399 -31.26004028 23.50143799 -31.28131104 22.55236816 C-31.28371531 15.5469463 -29.70368828 10.26980824 -25.08203125 4.9140625 C-24.52386719 4.46804687 -23.96570312 4.02203125 -23.390625 3.5625 C-22.83503906 3.10101563 -22.27945313 2.63953125 -21.70703125 2.1640625 C-15.19661034 -2.08598358 -7.26074777 -2.72779474 0 0 Z " fill="#05CF6D" transform="translate(61.828125,122.0625)"/>
<path d="M0 0 C0.763125 0.495 1.52625 0.99 2.3125 1.5 C2.3125 0.51 2.3125 -0.48 2.3125 -1.5 C5.9425 -1.5 9.5725 -1.5 13.3125 -1.5 C13.3125 9.39 13.3125 20.28 13.3125 31.5 C14.9625 31.5 16.6125 31.5 18.3125 31.5 C18.3125 34.8 18.3125 38.1 18.3125 41.5 C11.05096154 41.99230769 11.05096154 41.99230769 7.3125 39.5 C6.6525 38.84 5.9925 38.18 5.3125 37.5 C4.755625 37.78875 4.19875 38.0775 3.625 38.375 C-2.90893829 41.55367268 -8.42120337 42.5512155 -15.6875 41.5 C-21.61424659 38.95746078 -25.72454845 35.17899048 -28.6875 29.5 C-30.81220692 22.70384841 -30.89199655 14.94653261 -27.625 8.5625 C-21.48539965 -1.07544813 -10.53673851 -4.28613092 0 0 Z " fill="#03CF6C" transform="translate(108.6875,122.5)"/>
<path d="M0 0 C1.63133835 0.70104357 3.2187558 1.50289025 4.79296875 2.32421875 C4.79296875 1.33421875 4.79296875 0.34421875 4.79296875 -0.67578125 C8.42296875 -0.67578125 12.05296875 -0.67578125 15.79296875 -0.67578125 C15.79296875 10.21421875 15.79296875 21.10421875 15.79296875 32.32421875 C17.44296875 32.32421875 19.09296875 32.32421875 20.79296875 32.32421875 C20.79296875 35.62421875 20.79296875 38.92421875 20.79296875 42.32421875 C13.53143029 42.81652644 13.53143029 42.81652644 9.79296875 40.32421875 C9.13296875 39.66421875 8.47296875 39.00421875 7.79296875 38.32421875 C7.23609375 38.61296875 6.67921875 38.90171875 6.10546875 39.19921875 C-0.45236918 42.38951828 -5.91870899 43.23289269 -13.20703125 42.32421875 C-19.12195992 40.15217937 -23.31692195 35.86876319 -26.20703125 30.32421875 C-28.0642129 24.63285561 -28.43302856 17.55303064 -26.30078125 11.9375 C-20.54865161 2.25843571 -11.30461923 -3.46141438 0 0 Z " fill="#0336C9" transform="translate(106.20703125,61.67578125)"/>
<path d="M0 0 C6.8814519 3.75912149 10.71684744 8.54116731 13.1796875 15.9296875 C14.00196681 22.64272186 12.84779115 28.22374849 9.1796875 33.9296875 C4.93942612 38.63215746 0.50492645 41.52520901 -5.87109375 42.30078125 C-13.24548431 42.45091854 -18.22540074 41.94295002 -23.8203125 36.9296875 C-28.43742803 32.31257197 -30.88691278 26.43961703 -31.2578125 19.9296875 C-31.00346699 14.0450573 -28.21741257 9.59110379 -24.5078125 5.1796875 C-16.98708917 -1.11673203 -9.63961826 -3.65824848 0 0 Z " fill="#0637CA" transform="translate(180.8203125,62.0703125)"/>
<path d="M0 0 C5.64166991 -0.04940499 11.28321413 -0.08572193 16.92504883 -0.10986328 C18.84466749 -0.11992639 20.76427081 -0.13357816 22.68383789 -0.15087891 C25.44160752 -0.17511364 28.19917464 -0.18647992 30.95703125 -0.1953125 C32.24623222 -0.21079636 32.24623222 -0.21079636 33.56147766 -0.22659302 C34.36208115 -0.22674408 35.16268463 -0.22689514 35.98754883 -0.22705078 C36.6914827 -0.231492 37.39541656 -0.23593323 38.12068176 -0.24050903 C40 0 40 0 43 2 C43.85384454 5.91643662 43.67234465 7.85420364 41.63330078 11.32910156 C39.68672797 13.99811916 37.65098743 16.56553829 35.5625 19.125 C34.09288476 20.98396574 32.62542971 22.84464131 31.16015625 24.70703125 C30.44617676 25.60760254 29.73219727 26.50817383 28.99658203 27.43603516 C25.0837216 32.46084077 21.56100538 37.72208131 18 43 C26.58 43 35.16 43 44 43 C44 46.96 44 50.92 44 55 C38.3766798 55.09892174 32.75386667 55.17149342 27.12988281 55.21972656 C25.21703265 55.23983452 23.30424389 55.26712507 21.39160156 55.30175781 C18.64112189 55.35031249 15.89145523 55.37297658 13.140625 55.390625 C12.28631897 55.41127014 11.43201294 55.43191528 10.55181885 55.45318604 C4.62925485 55.45542125 4.62925485 55.45542125 1.43798828 53.14575195 C0 51 0 51 -0.1484375 48.27734375 C1.48283608 43.62211063 4.26506763 40.3447182 7.375 36.5625 C8.64762915 34.97409339 9.91843443 33.38422395 11.1875 31.79296875 C12.14462891 30.59873291 12.14462891 30.59873291 13.12109375 29.38037109 C17.58988734 23.71889273 21.76530817 17.83700766 26 12 C13.13 11.505 13.13 11.505 0 11 C0 7.37 0 3.74 0 0 Z " fill="#093ACB" transform="translate(31,50)"/>
<path d="M0 0 C3.63 0 7.26 0 11 0 C21 19.14285714 21 19.14285714 21 26 C21.66 26 22.32 26 23 26 C23.12238037 25.27981689 23.24476074 24.55963379 23.37084961 23.81762695 C24.00358845 20.98392924 24.90834771 18.5766102 26.06640625 15.91796875 C26.46923828 14.98662109 26.87207031 14.05527344 27.28710938 13.09570312 C27.70798828 12.13599609 28.12886719 11.17628906 28.5625 10.1875 C28.98724609 9.20845703 29.41199219 8.22941406 29.84960938 7.22070312 C30.89538034 4.81190484 31.94710965 2.40569491 33 0 C36.96 0 40.92 0 45 0 C42.77252182 7.03459603 40.07628585 13.75732582 37.1484375 20.52734375 C36.68893707 21.59747208 36.22943665 22.6676004 35.75601196 23.77015686 C34.29907741 27.16074659 32.83704523 30.54911139 31.375 33.9375 C30.38509571 36.24009642 29.39550917 38.54282947 28.40625 40.84570312 C26.60390065 45.03717533 24.80117237 49.22847926 22.99365234 53.41772461 C22.45096207 54.67606361 22.45096207 54.67606361 21.89730835 55.95982361 C21.29830736 57.32174972 20.66537883 58.66924235 20 60 C16.04 60 12.08 60 8 60 C9.50791325 55.25007327 11.01054892 50.9469126 13.375 46.5625 C15.81228189 41.05370395 14.013892 37.43265032 12 32 C9.74636626 26.31603885 7.35914576 20.69176665 4.9621582 15.06713867 C4.14363425 13.14160433 3.33141821 11.2134962 2.51953125 9.28515625 C2.03589111 8.14957275 1.55225098 7.01398926 1.05395508 5.84399414 C0 3 0 3 0 0 Z " fill="#06D06D" transform="translate(127,121)"/>
<path d="M0 0 C1.22634155 -0.00997513 2.45268311 -0.01995026 3.71618652 -0.03022766 C5.06220995 -0.03112333 6.40823355 -0.03178697 7.7542572 -0.03224182 C9.1823113 -0.03986977 10.61036132 -0.04829835 12.03840637 -0.0574646 C15.90864324 -0.07936138 19.77880111 -0.08820267 23.64909291 -0.09329104 C26.07243161 -0.09694212 28.49574986 -0.10318624 30.91908073 -0.11029243 C39.38905107 -0.13477591 47.85896033 -0.14783521 56.32896423 -0.15138245 C64.19745291 -0.1550108 72.06554987 -0.18485848 79.93391901 -0.22678703 C86.70872282 -0.26160952 93.48339764 -0.27693299 100.25829023 -0.27762848 C104.29581192 -0.27841762 108.33293481 -0.28698642 112.37036324 -0.31562614 C116.17500357 -0.34201105 119.97892039 -0.34390013 123.7836113 -0.3279705 C125.82433416 -0.32532239 127.86504424 -0.34720261 129.90563965 -0.37016296 C144.64753417 -0.2546531 156.07665895 5.23673391 166.81260681 15.14524841 C177.49893324 26.39278236 180.08409462 39.26239172 180.09165955 54.1572113 C180.09929012 55.56408626 180.10771915 56.97095707 180.11688232 58.37782288 C180.13875264 62.18608634 180.14761675 65.99426954 180.15270877 69.8025887 C180.15636285 72.18825102 180.16260848 74.57389265 180.16971016 76.95954704 C180.19418399 85.30099781 180.20725095 93.64238664 180.21080017 101.98387146 C180.21442826 109.7279637 180.24427649 117.4716579 180.28620476 125.21562868 C180.32104747 131.88770922 180.33635106 138.55965881 180.33704621 145.23182958 C180.33783463 149.20621383 180.34636994 153.18019261 180.37504387 157.15448189 C180.40146406 160.90004607 180.40329881 164.64487565 180.38738823 168.39049149 C180.38474544 170.39642258 180.40659572 172.40234094 180.42958069 174.40814209 C180.32047987 188.14325421 176.04105701 200.02956312 166.78526306 210.27415466 C154.55545083 221.96353329 142.37861193 225.57608778 125.87046814 225.56468201 C124.46034898 225.57067335 123.05023309 225.57748029 121.64012146 225.58503723 C117.82371857 225.60264622 114.00740548 225.60739054 110.19096589 225.6086688 C107.80129909 225.61009425 105.41165482 225.61437135 103.02199364 225.61966324 C94.66987545 225.63814906 86.31782095 225.64633597 77.96568298 225.64476013 C70.20570264 225.64356023 62.4460011 225.66463646 54.68609124 225.69624746 C48.00385137 225.72248894 41.32170209 225.73312409 34.63941115 225.73184931 C30.65733283 225.73134184 26.67550228 225.73690477 22.69347572 225.75820541 C18.94306655 225.77772032 15.19313806 225.77762309 11.44271088 225.76317215 C9.42926169 225.76011919 7.41581176 225.77666864 5.4024353 225.79405212 C-8.52932089 225.69875686 -20.32390137 221.4555618 -30.69129944 212.02024841 C-38.89718643 203.47130595 -45.43596293 192.14192209 -45.4888916 180.05941772 C-45.49886673 178.83307617 -45.50884186 177.60673462 -45.51911926 176.3432312 C-45.52001493 174.99720777 -45.52067857 173.65118417 -45.52113342 172.30516052 C-45.52876137 170.87710642 -45.53718996 169.44905641 -45.5463562 168.02101135 C-45.56825298 164.15077449 -45.57709427 160.28061662 -45.58218265 156.41032481 C-45.58583372 153.98698612 -45.59207784 151.56366786 -45.59918404 149.14033699 C-45.62366751 140.67036665 -45.63672681 132.2004574 -45.64027405 123.73045349 C-45.6439024 115.86196482 -45.67375008 107.99386785 -45.71567863 100.12549871 C-45.75050112 93.35069491 -45.76582459 86.57602008 -45.76652008 79.80112749 C-45.76730922 75.7636058 -45.77587802 71.72648292 -45.80451775 67.68905449 C-45.83090265 63.88441416 -45.83279173 60.08049734 -45.81686211 56.27580643 C-45.81421399 54.23508356 -45.83609421 52.19437349 -45.85905457 50.15377808 C-45.7435447 35.41188356 -40.25215769 23.98275878 -30.34364319 13.24681091 C-22.40399286 5.70331778 -11.02167251 0.04828158 0 0 Z M-32.95301819 18.40306091 C-42.5136948 30.53967112 -44.52394008 43.56703964 -44.473526 58.64329529 C-44.47703064 59.94542465 -44.48053528 61.24755402 -44.48414612 62.58914185 C-44.49319644 66.13253511 -44.48975654 69.67581077 -44.48338795 73.21920586 C-44.47828956 76.94475982 -44.48302999 80.67030437 -44.48616028 84.39585876 C-44.48978881 90.64974252 -44.48503016 96.9035789 -44.47547913 103.15745544 C-44.46459672 110.36589624 -44.46812308 117.57422386 -44.47913194 124.78266191 C-44.48823665 130.99529243 -44.48947458 137.20788908 -44.4842546 143.42052412 C-44.48115235 147.12072063 -44.48067717 150.82086412 -44.48732758 154.52105713 C-44.49423005 158.64910986 -44.4846365 162.77697048 -44.473526 166.90501404 C-44.47757446 168.11570053 -44.48162292 169.32638702 -44.48579407 170.57376099 C-44.41189841 185.44823033 -40.94998063 198.68469394 -30.52723694 209.71165466 C-17.36503447 221.78197004 -3.08613416 224.75275597 14.37730408 224.66233826 C15.65569153 224.66759521 16.93407898 224.67285217 18.25120544 224.67826843 C21.71197228 224.6917738 25.17246642 224.6867145 28.63323712 224.67713118 C32.28262812 224.66944789 35.93199831 224.67660377 39.58139038 224.68128967 C45.70464703 224.68672163 51.82779453 224.67962268 57.95103455 224.66526794 C64.99709075 224.64893902 72.04288646 224.65424198 79.08893639 224.67074716 C85.17601812 224.68442681 91.26302213 224.68625047 97.35011429 224.67843115 C100.96932894 224.67379094 104.58842177 224.67302781 108.20762825 224.68304062 C112.24611084 224.69343653 116.28415478 224.67896793 120.32261658 224.66233826 C121.49753159 224.66841095 122.67244659 224.67448364 123.88296509 224.68074036 C139.6773974 224.56109312 152.87975658 220.67925985 164.45713806 209.73899841 C175.8659964 197.66015678 179.0925963 185.24334312 179.05992126 168.99607849 C179.0650322 167.67955292 179.07014313 166.36302734 179.07540894 165.00660706 C179.08873698 161.41331875 179.08938423 157.82013604 179.08684564 154.22682786 C179.08577106 151.21542549 179.09067201 148.20404406 179.09545106 145.19264621 C179.10652623 138.07909319 179.10699579 130.96559298 179.10093689 123.85203552 C179.0949071 116.54368493 179.10718729 109.23552735 179.12850696 101.92720968 C179.14619903 95.62794651 179.15211214 89.32874433 179.14886922 83.02945727 C179.14706726 79.27823967 179.14958199 75.52715957 179.16358376 71.77596474 C179.17628096 68.24227782 179.17410753 64.70888828 179.16117287 61.17520523 C179.15772897 59.2824448 179.16889868 57.38967477 179.18074036 55.49694824 C179.08442163 39.58119524 175.09076174 26.79490323 164.22276306 14.96165466 C152.92874649 4.23751966 139.67355133 0.96935569 124.52891541 0.99949646 C123.18938413 0.99514361 121.84985534 0.98995855 120.5103302 0.98400879 C116.88599223 0.97066336 113.26175884 0.97003555 109.6374011 0.97257209 C106.60119568 0.97364569 103.56501108 0.96874808 100.52881014 0.96396667 C93.3563032 0.95288504 86.18384863 0.95242529 79.01133728 0.95848083 C71.64109209 0.96450836 64.27103839 0.95223772 56.90082586 0.93091077 C50.55062796 0.91321899 44.20049056 0.90730562 37.85026896 0.91054851 C34.06773777 0.91235084 30.28534294 0.90983203 26.50283432 0.89583397 C22.93879279 0.88313768 19.37504614 0.88530939 15.81100845 0.89824486 C13.90153972 0.90168947 11.99206148 0.89051774 10.08262634 0.87867737 C-7.10463312 0.98181366 -20.98577322 5.74206262 -32.95301819 18.40306091 Z " fill="#EBEBEB" transform="translate(45.21473693847656,-0.2741546630859375)"/>
<path d="M0 0 C3.63 0 7.26 0 11 0 C11 14.19 11 28.38 11 43 C12.65 43 14.3 43 16 43 C16 46.63 16 50.26 16 54 C7.81976744 54.48837209 7.81976744 54.48837209 4.0625 52.25 C0.8364866 48.73071265 -0.25323618 46.08898566 -0.22705078 41.32324219 C-0.22689972 40.40258972 -0.22674866 39.48193726 -0.22659302 38.53338623 C-0.21627045 37.54783752 -0.20594788 36.56228882 -0.1953125 35.546875 C-0.1924826 34.53151672 -0.18965271 33.51615845 -0.18673706 32.47003174 C-0.17555001 29.22990084 -0.15044791 25.99004724 -0.125 22.75 C-0.1149683 20.55208733 -0.10584278 18.35417032 -0.09765625 16.15625 C-0.07561546 10.77072663 -0.04109552 5.38541032 0 0 Z " fill="#0738CA" transform="translate(132,50)"/>
<path d="M0 0 C3.62416894 1.64734952 6.12851416 3.45402683 8 7 C8.54440618 11.99039002 8.08139334 15.00560122 5 19 C0.74548345 21.83634436 -3.00822671 21.74836793 -8 21 C-11.21668989 18.9649513 -12.51350634 17.49521214 -13.69140625 13.875 C-14.30684462 10.59266201 -14.60020417 8.13214984 -13.00390625 5.12109375 C-8.9768725 0.16198691 -6.23121725 -0.42245541 0 0 Z " fill="#F8F9FD" transform="translate(175,72)"/>
<path d="M0 0 C4.12060758 1.77935327 6.2942789 3.83045953 8 8 C7.90530733 13.30278931 6.68218754 16.20623102 3 20 C-0.47263273 21.73631636 -4.21193013 21.60190402 -8 21 C-10.75569447 18.81840855 -12.43588747 17.12822506 -14 14 C-14.67660495 8.13609041 -14.67660495 8.13609041 -12.953125 5.2421875 C-8.83153147 0.22354126 -6.40501405 -0.43423824 0 0 Z " fill="#F9FDFB" transform="translate(56,132)"/>
<path d="M0 0 C3.86134614 0.04843983 6.16579789 0.80078068 9.25 3.25 C11.7178316 6.95174739 11.93072732 9.95493475 11.25 14.25 C8.25 19.75 8.25 19.75 5.25 21.25 C0.61786507 21.80512815 -2.73172127 21.8864242 -6.75 19.375 C-10.05503543 15.86339986 -10.13586099 13.18572482 -10.11328125 8.51171875 C-9.5418883 4.95433683 -7.4987971 3.39540262 -4.75 1.25 C-3.75 0.25 -3.75 0.25 0 0 Z " fill="#F9FDFB" transform="translate(99.75,131.75)"/>
<path d="M0 0 C2.6258382 1.78870171 3.34201385 3.11189509 5 6 C5.55724601 9.9703778 5.38142821 12.18265383 3.6875 15.8125 C1.74161911 18.3349382 0.1275845 19.81840399 -3.0859375 20.3359375 C-7.21467052 20.40639369 -9.41215089 20.3674057 -13 18.125 C-16.30431828 14.61416183 -16.38948117 11.93570206 -16.359375 7.26171875 C-15.78943134 3.67479071 -13.79773951 2.13161106 -11 0 C-7.46077805 -1.76961098 -3.72473277 -1.03393444 0 0 Z " fill="#FAFBFE" transform="translate(106,73)"/>
</svg>
